<svg width="800" height="140" viewBox="0 0 800 140" fill="none" xmlns="http://www.w3.org/2000/svg">
<path fill-rule="evenodd" clip-rule="evenodd" d="M22.0186 10.7957C34.6609 4.39745 50.2282 0 66.9654 0C82.8476 0 98.9619 4.19771 111.64 10.6139C113.617 11.6147 114.409 14.0291 113.408 16.0067C112.407 17.9842 109.993 18.776 108.015 17.7751C96.4142 11.9038 81.5367 8.02618 66.9654 8.02618C51.6131 8.02618 37.2795 12.0677 25.643 17.957C23.6654 18.9578 21.251 18.166 20.2502 16.1885C19.2493 14.2109 20.0411 11.7965 22.0186 10.7957ZM29.9512 24.7394C40.9002 19.6284 54.9892 16.9084 66.9129 16.9084C78.8532 16.9084 92.5897 19.6346 103.525 24.7394C115.715 30.4297 125.914 38.6891 132.902 48.3937C134.197 50.1923 133.788 52.7003 131.99 53.9953C130.191 55.2903 127.683 54.8821 126.388 53.0834C120.285 44.6069 111.212 37.1851 100.13 32.0122C90.3706 27.4564 77.8115 24.9346 66.9129 24.9346C55.9976 24.9346 43.0924 27.4627 33.3462 32.0122C22.7336 36.9661 13.2208 44.9353 7.27887 53.2531C5.99055 55.0565 3.48416 55.4741 1.68068 54.1858C-0.122787 52.8975 -0.540397 50.3911 0.747927 48.5876C7.53282 39.0897 18.1495 30.2484 29.9512 24.7394ZM66.336 33.4534C89.6851 33.2289 110.041 45.2532 120.361 62.495C125.777 71.5415 127.658 80.6305 127.658 88.3734C127.658 101.329 115.812 109.477 105.1 109.477C99.7148 109.477 94.0239 108.035 89.5312 104.61C84.9153 101.09 81.8531 95.6805 81.6353 88.495C81.496 83.8984 79.379 80.829 76.4901 78.7878C73.4678 76.6522 69.5794 75.6599 66.3746 75.6599C57.672 75.6599 51.4793 82.0735 51.4793 88.3734C51.4793 93.4075 53.0522 100.435 55.1318 105.103C57.2357 109.825 61.0052 115.322 64.7039 118.669L64.742 118.704L64.7792 118.739C70.7809 124.457 78.3025 129.563 89.3249 132.073C91.4859 132.565 92.8388 134.716 92.3466 136.877C91.8544 139.038 89.7035 140.391 87.5425 139.899C74.8322 137.004 66.0745 131.05 59.2795 124.585C54.6376 120.371 50.2754 113.925 47.8004 108.37C45.2941 102.744 43.4532 94.6076 43.4532 88.3734C43.4532 76.8558 54.0672 67.6337 66.3746 67.6337C70.9876 67.6337 76.5535 69.0049 81.1217 72.2328C85.8234 75.555 89.4335 80.8489 89.6578 88.2519C89.8037 93.0658 91.7413 96.2015 94.3978 98.2271C97.1776 100.347 101.032 101.451 105.1 101.451C112.583 101.451 119.632 95.7812 119.632 88.3734C119.632 81.935 118.072 74.2974 113.475 66.6173C104.658 51.888 86.992 41.2814 66.4132 41.4792C48.5746 41.6508 29.5596 50.0728 19.825 66.427C15.6726 73.403 13.5901 81.3751 13.8426 89.7064C14.1882 101.11 15.859 105.925 18.858 113.863C19.6413 115.937 18.5955 118.252 16.5221 119.036C14.4488 119.819 12.133 118.773 11.3497 116.7C8.16721 108.275 6.20179 102.545 5.82011 89.9495C5.52163 80.0996 7.98999 70.6178 12.9281 62.3217C24.4048 43.0409 46.3578 33.6455 66.336 33.4534ZM24.7266 87.6087C24.7507 66.911 44.7072 50.5435 66.3746 50.5435C87.9356 50.5435 108.75 65.3737 108.75 88.9188C108.75 91.1352 106.953 92.9319 104.737 92.9319C102.52 92.9319 100.724 91.1352 100.724 88.9188C100.724 71.011 84.812 58.5697 66.3746 58.5697C48.0566 58.5697 32.7528 72.363 32.7528 87.6462V87.6829L32.7521 87.7196C32.5985 96.1131 33.9365 104.143 38.3148 112.732C42.7703 121.471 48.1294 127.412 53.0269 131.723C54.6905 133.187 54.8519 135.723 53.3875 137.387C51.923 139.051 49.3872 139.212 47.7236 137.748C42.2163 132.899 36.1628 126.182 31.1642 116.377C26.0947 106.433 24.5578 97.0686 24.7266 87.6087ZM66.3746 84.3603C68.591 84.3603 70.3877 86.1571 70.3877 88.3734C70.3877 93.4169 71.7725 98.1891 74.3949 102.729C76.9318 107.121 80.2357 110.285 84.7385 113.013C91.2643 116.574 95.7869 117.808 102.634 117.633L102.662 117.632L102.689 117.632C105.367 117.6 108.517 117.379 111.016 116.944C113.199 116.563 115.278 118.024 115.659 120.207C116.04 122.391 114.578 124.47 112.395 124.85C109.353 125.381 105.762 125.621 102.811 125.657C94.3326 125.87 88.4182 124.175 80.8113 120.013L80.7373 119.973L80.6651 119.929C75.1434 116.599 70.7711 112.502 67.4448 106.744C64.1907 101.11 62.3615 94.9659 62.3615 88.3734C62.3615 86.1571 64.1582 84.3603 66.3746 84.3603Z" fill="white"/>
<path d="M179.36 66.2141H206.789V75.4977H179.36V106.513H167.123V33.7215H211.853L210.587 43.0051H179.36V66.2141Z" fill="white"/>
<path d="M244.41 23.4884C246.66 23.4884 248.489 24.2269 249.895 25.7038C251.372 27.1104 252.111 28.8687 252.111 30.9786C252.111 33.0885 251.372 34.8468 249.895 36.2534C248.489 37.66 246.66 38.3633 244.41 38.3633C242.089 38.3633 240.225 37.66 238.818 36.2534C237.412 34.8468 236.708 33.0885 236.708 30.9786C236.708 28.7983 237.412 27.0049 238.818 25.5983C240.295 24.1917 242.159 23.4884 244.41 23.4884ZM252.533 97.8627H267.724V106.513H224.154V97.8627H240.717V59.4624H224.682V50.8117H252.533V97.8627Z" fill="white"/>
<path d="M281.186 50.8117H291.419L292.263 58.0909C294.584 55.2777 297.292 53.1326 300.386 51.6557C303.551 50.1084 306.857 49.3348 310.303 49.3348C315.437 49.3348 319.305 50.7766 321.908 53.6601C324.51 56.5437 325.811 60.6228 325.811 65.8976V106.513H313.995V71.8053C313.995 68.3592 313.784 65.7218 313.362 63.8932C313.011 61.9943 312.272 60.6228 311.147 59.7789C310.022 58.8646 308.334 58.4074 306.083 58.4074C303.551 58.4074 301.125 59.181 298.804 60.7283C296.553 62.2756 294.619 64.2097 293.002 66.5306V106.513H281.186V50.8117Z" fill="white"/>
<path d="M390.227 53.5546C388.188 54.2579 385.867 54.7502 383.265 55.0316C380.733 55.2425 377.673 55.348 374.087 55.348C377.462 56.8953 379.994 58.8294 381.682 61.1503C383.37 63.4712 384.214 66.2844 384.214 69.5899C384.214 73.2471 383.3 76.4823 381.471 79.2955C379.713 82.1087 377.181 84.3241 373.876 85.9417C370.57 87.5593 366.667 88.3681 362.166 88.3681C359.001 88.3681 356.469 88.0516 354.57 87.4187C353.796 87.9813 353.198 88.6846 352.776 89.5286C352.355 90.3022 352.144 91.1462 352.144 92.0605C352.144 94.8737 354.429 96.2803 359.001 96.2803H368.706C372.645 96.2803 376.161 96.9484 379.256 98.2847C382.35 99.621 384.742 101.485 386.43 103.876C388.188 106.197 389.067 108.834 389.067 111.788C389.067 117.344 386.676 121.634 381.893 124.659C377.111 127.753 370.218 129.3 361.216 129.3C354.957 129.3 349.998 128.632 346.341 127.296C342.754 126.03 340.187 124.131 338.64 121.599C337.163 119.138 336.425 115.938 336.425 111.999H346.974C346.974 114.109 347.361 115.762 348.135 116.957C348.979 118.223 350.42 119.138 352.46 119.7C354.5 120.333 357.453 120.65 361.322 120.65C366.948 120.65 370.992 119.946 373.454 118.54C375.915 117.204 377.146 115.199 377.146 112.527C377.146 110.276 376.161 108.518 374.192 107.252C372.293 106.056 369.691 105.458 366.385 105.458H356.785C351.792 105.458 347.994 104.439 345.392 102.399C342.86 100.359 341.594 97.7924 341.594 94.6979C341.594 92.7989 342.121 90.9704 343.176 89.2121C344.231 87.4538 345.743 85.9417 347.713 84.6758C344.407 82.9175 341.981 80.8076 340.434 78.3461C338.957 75.8142 338.218 72.7196 338.218 69.0625C338.218 65.1943 339.203 61.7833 341.172 58.8294C343.141 55.8052 345.884 53.4843 349.401 51.8667C352.917 50.1788 356.926 49.3348 361.427 49.3348C367.476 49.4051 372.258 48.9832 375.775 48.0689C379.361 47.1546 383.159 45.7128 387.168 43.7435L390.227 53.5546ZM361.533 57.5635C357.805 57.5635 354.992 58.6184 353.093 60.7283C351.194 62.7679 350.245 65.5459 350.245 69.0625C350.245 72.6493 351.194 75.4977 353.093 77.6076C355.062 79.6472 357.911 80.667 361.638 80.667C365.155 80.667 367.827 79.6472 369.656 77.6076C371.484 75.568 372.399 72.6493 372.399 68.8515C372.399 61.3261 368.777 57.5635 361.533 57.5635Z" fill="white"/>
<path d="M409.07 82.4604C409.422 87.8758 410.969 91.955 413.712 94.6979C416.525 97.3704 420.041 98.7067 424.261 98.7067C426.863 98.7067 429.325 98.3199 431.646 97.5462C434.037 96.7023 436.464 95.4715 438.925 93.8539L443.989 101.028C441.387 103.208 438.327 104.896 434.811 106.091C431.294 107.287 427.602 107.885 423.734 107.885C415.224 107.885 408.613 105.247 403.901 99.9726C399.188 94.6275 396.832 87.5242 396.832 78.6626C396.832 73.1065 397.852 68.113 399.892 63.6822C401.931 59.181 404.885 55.6645 408.753 53.1326C412.622 50.6007 417.123 49.3348 422.257 49.3348C429.642 49.3348 435.479 51.8315 439.769 56.825C444.13 61.7481 446.31 68.535 446.31 77.1856C446.31 79.2955 446.204 81.0538 445.993 82.4604H409.07ZM422.362 58.0909C418.564 58.0909 415.47 59.4624 413.079 62.2053C410.687 64.9481 409.316 69.0273 408.964 74.4427H434.811C434.67 69.168 433.545 65.124 431.435 62.3107C429.325 59.4975 426.301 58.0909 422.362 58.0909Z" fill="white"/>
<path d="M497.75 49.4403C500.634 49.4403 503.447 49.8974 506.19 50.8117L504.186 71.3834H495.746V59.9898C491.878 60.0602 488.502 61.6074 485.618 64.6317C482.805 67.6559 480.555 71.9108 478.867 77.3966V98.0737H490.049V106.513H458.823V98.0737H467.051V59.2514H458.823V50.8117H476.018L478.128 63.6822C480.309 58.8997 482.946 55.348 486.04 53.0271C489.205 50.6359 493.109 49.4403 497.75 49.4403Z" fill="white"/>
<path d="M544.549 49.3348C558.053 49.3348 564.804 59.0756 564.804 78.5571C564.804 87.3483 562.941 94.4517 559.213 99.8671C555.486 105.212 550.176 107.885 543.283 107.885C537.446 107.885 532.734 105.845 529.147 101.766V127.929L517.331 129.3V50.8117H527.564L528.303 57.9854C530.413 55.1722 532.839 53.0271 535.582 51.5502C538.395 50.0733 541.384 49.3348 544.549 49.3348ZM541.279 58.4074C538.817 58.4074 536.567 59.1459 534.527 60.6228C532.488 62.0998 530.694 64.0338 529.147 66.4251V92.4825C531.89 96.632 535.547 98.7067 540.118 98.7067C544.198 98.7067 547.257 97.0891 549.297 93.8539C551.336 90.6187 552.356 85.5549 552.356 78.6626C552.356 71.5592 551.442 66.4251 549.613 63.2602C547.784 60.025 545.006 58.4074 541.279 58.4074Z" fill="white"/>
<path d="M615.823 49.4403C618.707 49.4403 621.52 49.8974 624.263 50.8117L622.258 71.3834H613.819V59.9898C609.95 60.0602 606.574 61.6074 603.691 64.6317C600.878 67.6559 598.627 71.9108 596.939 77.3966V98.0737H608.122V106.513H576.895V98.0737H585.124V59.2514H576.895V50.8117H594.091L596.201 63.6822C598.381 58.8997 601.018 55.348 604.113 53.0271C607.278 50.6359 611.181 49.4403 615.823 49.4403Z" fill="white"/>
<path d="M657.663 23.4884C659.914 23.4884 661.743 24.2269 663.149 25.7038C664.626 27.1104 665.365 28.8687 665.365 30.9786C665.365 33.0885 664.626 34.8468 663.149 36.2534C661.743 37.66 659.914 38.3633 657.663 38.3633C655.343 38.3633 653.479 37.66 652.072 36.2534C650.666 34.8468 649.962 33.0885 649.962 30.9786C649.962 28.7983 650.666 27.0049 652.072 25.5983C653.549 24.1917 655.413 23.4884 657.663 23.4884ZM665.787 97.8627H680.978V106.513H637.408V97.8627H653.971V59.4624H637.936V50.8117H665.787V97.8627Z" fill="white"/>
<path d="M694.44 50.8117H704.673L705.517 58.0909C707.838 55.2777 710.546 53.1326 713.64 51.6557C716.805 50.1084 720.111 49.3348 723.557 49.3348C728.691 49.3348 732.559 50.7766 735.161 53.6601C737.764 56.5437 739.065 60.6228 739.065 65.8976V106.513H727.249V71.8053C727.249 68.3592 727.038 65.7218 726.616 63.8932C726.265 61.9943 725.526 60.6228 724.401 59.7789C723.276 58.8646 721.588 58.4074 719.337 58.4074C716.805 58.4074 714.379 59.181 712.058 60.7283C709.807 62.2756 707.873 64.2097 706.256 66.5306V106.513H694.44V50.8117Z" fill="white"/>
<path d="M800 103.559C797.89 104.896 795.429 105.951 792.615 106.724C789.802 107.498 786.848 107.885 783.754 107.885C777.424 107.885 772.536 106.267 769.09 103.032C765.644 99.7265 763.92 95.2605 763.92 89.6341V59.4624H751.578V50.8117H763.92V38.3633L775.736 36.9918V50.8117H794.62L793.248 59.4624H775.736V89.5286C775.736 92.5528 776.51 94.8034 778.057 96.2803C779.604 97.6869 782.066 98.3902 785.442 98.3902C789.169 98.3902 792.615 97.5111 795.78 95.7528L800 103.559Z" fill="white"/>
</svg>
