<svg width="800" height="141" viewBox="0 0 800 141" fill="none" xmlns="http://www.w3.org/2000/svg">
<path fill-rule="evenodd" clip-rule="evenodd" d="M22.1605 10.8549C34.7792 4.46856 50.3173 0.0788574 67.027 0.0788574C82.883 0.0788574 98.9643 4.26781 111.623 10.6744C113.859 11.8059 114.754 14.5355 113.622 16.7712C112.491 19.0068 109.761 19.902 107.526 18.7705C96.084 12.9798 81.4011 9.15273 67.027 9.15273C51.883 9.15273 37.7397 13.14 26.2579 18.951C24.0222 20.0824 21.2926 19.1873 20.1612 16.9516C19.0297 14.716 19.9248 11.9864 22.1605 10.8549ZM30.0506 24.6885C41.0022 19.5763 55.0693 16.8631 66.9749 16.8631C78.8995 16.8631 92.6162 19.5834 103.553 24.6885C115.73 30.3728 125.931 38.6292 132.928 48.3472C134.392 50.3807 133.931 53.216 131.897 54.68C129.864 56.1441 127.029 55.6826 125.564 53.6491C119.567 45.3195 110.638 38.0099 99.7144 32.9107C90.1075 28.4262 77.7217 25.937 66.9749 25.937C56.2093 25.937 43.4805 28.4333 33.8887 32.9107C23.4361 37.79 14.0692 45.6405 8.22902 53.8159C6.77252 55.8547 3.93896 56.3269 1.90007 54.8704C-0.138815 53.4139 -0.610937 50.5803 0.845557 48.5414C7.63875 39.0319 18.2536 30.1954 30.0506 24.6885ZM66.397 33.2867C89.7656 33.062 110.157 45.0957 120.506 62.3842C125.938 71.4584 127.828 80.5808 127.828 88.3567C127.828 101.599 115.737 109.858 104.882 109.858C99.4452 109.858 93.6695 108.404 89.0917 104.914C84.3746 101.317 81.2573 95.7905 81.0362 88.4942C80.9038 84.1248 78.9053 81.2313 76.1626 79.2933C73.269 77.2488 69.5248 76.2899 66.4406 76.2899C58.0504 76.2899 52.208 82.4628 52.208 88.3567C52.208 93.2711 53.7509 100.171 55.7858 104.738C57.8482 109.367 61.5479 114.757 65.1534 118.02L65.1965 118.059L65.2386 118.099C71.1412 123.722 78.5218 128.731 89.3453 131.196C91.7884 131.753 93.3179 134.184 92.7614 136.627C92.205 139.07 89.7733 140.6 87.3302 140.043C74.5985 137.144 65.8206 131.176 59.021 124.708C54.3494 120.465 49.9793 114.002 47.4973 108.431C44.9801 102.781 43.1342 94.6279 43.1342 88.3567C43.1342 76.564 53.9751 67.216 66.4406 67.216C71.1169 67.216 76.7575 68.6032 81.3988 71.8827C86.1909 75.2688 89.8774 80.6773 90.1059 88.2193C90.2458 92.8344 92.0916 95.7904 94.5936 97.6981C97.2348 99.7121 100.934 100.785 104.882 100.785C112.087 100.785 118.754 95.3276 118.754 88.3567C118.754 82.0555 117.227 74.5741 112.72 67.0445C104.072 52.5966 86.7209 42.1655 66.4842 42.3601C48.9242 42.529 30.2513 50.8221 20.7082 66.8544C16.6405 73.6883 14.5999 81.4977 14.8474 89.6631C15.1879 100.901 16.8261 105.617 19.7905 113.464C20.676 115.808 19.4937 118.426 17.1497 119.311C14.8057 120.197 12.1877 119.015 11.3022 116.671C8.13035 108.275 6.15905 102.523 5.77767 89.938C5.47821 80.0557 7.95505 70.5395 12.9111 62.2133C24.4236 42.8723 46.418 33.4788 66.397 33.2867ZM24.5451 87.5924C24.5723 66.6748 44.7023 50.2512 66.4406 50.2512C88.0587 50.2512 109.058 65.1373 109.058 88.8982C109.058 91.4038 107.027 93.4351 104.521 93.4351C102.015 93.4351 99.9842 91.4038 99.9842 88.8982C99.9842 71.5105 84.5273 59.3251 66.4406 59.3251C48.4889 59.3251 33.619 72.8383 33.619 87.6348V87.6763L33.6182 87.7178C33.4671 95.9754 34.7817 103.854 39.0797 112.285C43.4651 120.887 48.737 126.73 53.5565 130.973C55.4373 132.628 55.6198 135.495 53.9642 137.376C52.3086 139.257 49.4417 139.439 47.5609 137.784C42.052 132.934 35.9952 126.212 30.9958 116.406C25.9163 106.442 24.3768 97.0555 24.5451 87.5924ZM66.4406 83.8198C68.9463 83.8198 70.9775 85.8511 70.9775 88.3567C70.9775 93.2564 72.3215 97.899 74.8812 102.33C77.3442 106.594 80.549 109.67 84.9459 112.336C91.3453 115.826 95.7381 117.019 102.42 116.848L102.451 116.848L102.482 116.847C105.121 116.816 108.217 116.598 110.659 116.172C113.128 115.741 115.478 117.394 115.908 119.862C116.339 122.33 114.687 124.68 112.218 125.111C109.162 125.644 105.568 125.884 102.621 125.92C94.0942 126.133 88.1282 124.42 80.5057 120.25L80.4221 120.204L80.3405 120.155C74.7916 116.808 70.3792 112.678 67.0239 106.869C63.7501 101.201 61.9037 95.0076 61.9037 88.3567C61.9037 85.8511 63.9349 83.8198 66.4406 83.8198Z" fill="#F04405"/>
<path d="M179.36 66.0564H206.789V75.34H179.36V106.356H167.122V33.5638H211.852L210.587 42.8474H179.36V66.0564Z" fill="#0D102B"/>
<path d="M244.409 23.3307C246.66 23.3307 248.489 24.0692 249.895 25.5461C251.372 26.9527 252.111 28.711 252.111 30.8209C252.111 32.9308 251.372 34.689 249.895 36.0956C248.489 37.5023 246.66 38.2056 244.409 38.2056C242.089 38.2056 240.225 37.5023 238.818 36.0956C237.412 34.689 236.708 32.9308 236.708 30.8209C236.708 28.6406 237.412 26.8472 238.818 25.4406C240.295 24.034 242.159 23.3307 244.409 23.3307ZM252.533 97.705H267.724V106.356H224.154V97.705H240.717V59.3047H224.682V50.654H252.533V97.705Z" fill="#0D102B"/>
<path d="M281.186 50.654H291.419L292.263 57.9332C294.584 55.12 297.292 52.9749 300.386 51.498C303.551 49.9507 306.857 49.1771 310.303 49.1771C315.437 49.1771 319.305 50.6189 321.907 53.5024C324.51 56.3859 325.811 60.4651 325.811 65.7399V106.356H313.995V71.6476C313.995 68.2014 313.784 65.5641 313.362 63.7355C313.011 61.8365 312.272 60.4651 311.147 59.6211C310.022 58.7068 308.334 58.2497 306.083 58.2497C303.551 58.2497 301.125 59.0233 298.804 60.5706C296.553 62.1179 294.619 64.052 293.002 66.3729V106.356H281.186V50.654Z" fill="#0D102B"/>
<path d="M390.227 53.3969C388.188 54.1002 385.867 54.5925 383.265 54.8738C380.733 55.0848 377.673 55.1903 374.086 55.1903C377.462 56.7376 379.994 58.6717 381.682 60.9926C383.37 63.3135 384.214 66.1267 384.214 69.4322C384.214 73.0894 383.3 76.3246 381.471 79.1378C379.713 81.951 377.181 84.1664 373.875 85.784C370.57 87.4016 366.667 88.2104 362.165 88.2104C359.001 88.2104 356.469 87.8939 354.57 87.261C353.796 87.8236 353.198 88.5269 352.776 89.3709C352.354 90.1445 352.143 90.9885 352.143 91.9028C352.143 94.716 354.429 96.1226 359.001 96.1226H368.706C372.645 96.1226 376.161 96.7907 379.256 98.127C382.35 99.4633 384.741 101.327 386.429 103.718C388.188 106.039 389.067 108.677 389.067 111.63C389.067 117.187 386.676 121.477 381.893 124.501C377.111 127.595 370.218 129.143 361.216 129.143C354.957 129.143 349.998 128.475 346.341 127.138C342.754 125.872 340.187 123.973 338.64 121.442C337.163 118.98 336.425 115.78 336.425 111.841H346.974C346.974 113.951 347.361 115.604 348.135 116.8C348.979 118.066 350.42 118.98 352.46 119.543C354.499 120.176 357.453 120.492 361.321 120.492C366.948 120.492 370.992 119.789 373.453 118.382C375.915 117.046 377.146 115.041 377.146 112.369C377.146 110.118 376.161 108.36 374.192 107.094C372.293 105.899 369.691 105.301 366.385 105.301H356.785C351.792 105.301 347.994 104.281 345.392 102.241C342.86 100.202 341.594 97.6347 341.594 94.5401C341.594 92.6412 342.121 90.8126 343.176 89.0544C344.231 87.2961 345.743 85.784 347.713 84.5181C344.407 82.7598 341.981 80.6499 340.433 78.1883C338.956 75.6565 338.218 72.5619 338.218 68.9047C338.218 65.0366 339.203 61.6256 341.172 58.6717C343.141 55.6475 345.884 53.3266 349.4 51.709C352.917 50.021 356.926 49.1771 361.427 49.1771C367.475 49.2474 372.258 48.8254 375.774 47.9111C379.361 46.9968 383.159 45.5551 387.168 43.5858L390.227 53.3969ZM361.532 57.4057C357.805 57.4057 354.992 58.4607 353.093 60.5706C351.194 62.6102 350.244 65.3882 350.244 68.9047C350.244 72.4916 351.194 75.34 353.093 77.4499C355.062 79.4895 357.91 80.5092 361.638 80.5092C365.154 80.5092 367.827 79.4895 369.656 77.4499C371.484 75.4103 372.399 72.4916 372.399 68.6938C372.399 61.1684 368.776 57.4057 361.532 57.4057Z" fill="#0D102B"/>
<path d="M409.07 82.3027C409.421 87.7181 410.969 91.7973 413.712 94.5401C416.525 97.2127 420.041 98.549 424.261 98.549C426.863 98.549 429.325 98.1622 431.646 97.3885C434.037 96.5446 436.463 95.3138 438.925 93.6962L443.989 100.87C441.387 103.05 438.327 104.738 434.811 105.934C431.294 107.129 427.602 107.727 423.734 107.727C415.224 107.727 408.613 105.09 403.9 99.8149C399.188 94.4698 396.832 87.3665 396.832 78.5048C396.832 72.9487 397.852 67.9553 399.892 63.5245C401.931 59.0233 404.885 55.5068 408.753 52.9749C412.621 50.443 417.123 49.1771 422.257 49.1771C429.641 49.1771 435.479 51.6738 439.769 56.6673C444.129 61.5904 446.31 68.3773 446.31 77.0279C446.31 79.1378 446.204 80.8961 445.993 82.3027H409.07ZM422.362 57.9332C418.564 57.9332 415.47 59.3047 413.079 62.0475C410.687 64.7904 409.316 68.8696 408.964 74.285H434.811C434.67 69.0102 433.545 64.9662 431.435 62.153C429.325 59.3398 426.301 57.9332 422.362 57.9332Z" fill="#0D102B"/>
<path d="M497.75 49.2826C500.634 49.2826 503.447 49.7397 506.19 50.654L504.185 71.2256H495.746V59.8321C491.878 59.9025 488.502 61.4497 485.618 64.4739C482.805 67.4981 480.554 71.7531 478.867 77.2389V97.916H490.049V106.356H458.822V97.916H467.051V59.0937H458.822V50.654H476.018L478.128 63.5245C480.308 58.742 482.946 55.1903 486.04 52.8694C489.205 50.4782 493.108 49.2826 497.75 49.2826Z" fill="#0D102B"/>
<path d="M544.549 49.1771C558.052 49.1771 564.804 58.9178 564.804 78.3993C564.804 87.1906 562.94 94.294 559.213 99.7094C555.485 105.055 550.175 107.727 543.283 107.727C537.446 107.727 532.734 105.688 529.147 101.608V127.771L517.331 129.143V50.654H527.564L528.303 57.8277C530.413 55.0145 532.839 52.8694 535.582 51.3925C538.395 49.9156 541.384 49.1771 544.549 49.1771ZM541.279 58.2497C538.817 58.2497 536.567 58.9882 534.527 60.4651C532.487 61.942 530.694 63.8761 529.147 66.2674V92.3247C531.89 96.4742 535.547 98.549 540.118 98.549C544.197 98.549 547.257 96.9314 549.296 93.6962C551.336 90.461 552.356 85.3972 552.356 78.5048C552.356 71.4015 551.441 66.2674 549.613 63.1025C547.784 59.8673 545.006 58.2497 541.279 58.2497Z" fill="#0D102B"/>
<path d="M615.823 49.2826C618.706 49.2826 621.52 49.7397 624.262 50.654L622.258 71.2256H613.818V59.8321C609.95 59.9025 606.574 61.4497 603.691 64.4739C600.878 67.4981 598.627 71.7531 596.939 77.2389V97.916H608.122V106.356H576.895V97.916H585.124V59.0937H576.895V50.654H594.091L596.201 63.5245C598.381 58.742 601.018 55.1903 604.113 52.8694C607.278 50.4782 611.181 49.2826 615.823 49.2826Z" fill="#0D102B"/>
<path d="M657.663 23.3307C659.914 23.3307 661.742 24.0692 663.149 25.5461C664.626 26.9527 665.364 28.711 665.364 30.8209C665.364 32.9308 664.626 34.689 663.149 36.0956C661.742 37.5023 659.914 38.2056 657.663 38.2056C655.342 38.2056 653.479 37.5023 652.072 36.0956C650.665 34.689 649.962 32.9308 649.962 30.8209C649.962 28.6406 650.665 26.8472 652.072 25.4406C653.549 24.034 655.413 23.3307 657.663 23.3307ZM665.786 97.705H680.978V106.356H637.408V97.705H653.971V59.3047H637.936V50.654H665.786V97.705Z" fill="#0D102B"/>
<path d="M694.44 50.654H704.673L705.517 57.9332C707.838 55.12 710.546 52.9749 713.64 51.498C716.805 49.9507 720.111 49.1771 723.557 49.1771C728.691 49.1771 732.559 50.6189 735.161 53.5024C737.764 56.3859 739.065 60.4651 739.065 65.7399V106.356H727.249V71.6476C727.249 68.2014 727.038 65.5641 726.616 63.7355C726.264 61.8365 725.526 60.4651 724.401 59.6211C723.275 58.7068 721.588 58.2497 719.337 58.2497C716.805 58.2497 714.379 59.0233 712.058 60.5706C709.807 62.1179 707.873 64.052 706.256 66.3729V106.356H694.44V50.654Z" fill="#0D102B"/>
<path d="M800 103.402C797.89 104.738 795.428 105.793 792.615 106.567C789.802 107.34 786.848 107.727 783.754 107.727C777.424 107.727 772.536 106.109 769.09 102.874C765.643 99.5688 763.92 95.1028 763.92 89.4764V59.3047H751.577V50.654H763.92V38.2056L775.736 36.8341V50.654H794.62L793.248 59.3047H775.736V89.3709C775.736 92.3951 776.509 94.6456 778.057 96.1226C779.604 97.5292 782.066 98.2325 785.441 98.2325C789.169 98.2325 792.615 97.3534 795.78 95.5951L800 103.402Z" fill="#0D102B"/>
</svg>
