<svg width="800" height="140" viewBox="0 0 800 140" fill="none" xmlns="http://www.w3.org/2000/svg">
<path fill-rule="evenodd" clip-rule="evenodd" d="M22.0186 10.7957C34.6609 4.39745 50.2282 0 66.9654 0C82.8476 0 98.9619 4.19771 111.64 10.6139C113.617 11.6147 114.409 14.0291 113.408 16.0067C112.407 17.9842 109.993 18.776 108.015 17.7751C96.4142 11.9038 81.5367 8.02618 66.9654 8.02618C51.6131 8.02618 37.2795 12.0677 25.643 17.957C23.6654 18.9578 21.251 18.166 20.2502 16.1885C19.2493 14.2109 20.0411 11.7965 22.0186 10.7957ZM29.9512 24.7394C40.9002 19.6284 54.9892 16.9084 66.9129 16.9084C78.8532 16.9084 92.5897 19.6346 103.525 24.7394C115.715 30.4297 125.914 38.6891 132.902 48.3937C134.197 50.1923 133.788 52.7003 131.99 53.9953C130.191 55.2903 127.683 54.8821 126.388 53.0834C120.285 44.6069 111.212 37.1851 100.13 32.0122C90.3706 27.4564 77.8115 24.9346 66.9129 24.9346C55.9976 24.9346 43.0924 27.4627 33.3462 32.0122C22.7336 36.9661 13.2208 44.9353 7.27887 53.2531C5.99055 55.0565 3.48416 55.4741 1.68068 54.1858C-0.122787 52.8975 -0.540397 50.3911 0.747927 48.5876C7.53282 39.0897 18.1495 30.2484 29.9512 24.7394ZM66.336 33.4534C89.6851 33.2289 110.041 45.2532 120.361 62.495C125.777 71.5415 127.658 80.6305 127.658 88.3734C127.658 101.329 115.812 109.477 105.1 109.477C99.7148 109.477 94.0239 108.035 89.5312 104.61C84.9153 101.09 81.8531 95.6805 81.6353 88.495C81.496 83.8984 79.379 80.829 76.4901 78.7878C73.4678 76.6522 69.5794 75.6599 66.3746 75.6599C57.672 75.6599 51.4793 82.0735 51.4793 88.3734C51.4793 93.4075 53.0522 100.435 55.1318 105.103C57.2357 109.825 61.0052 115.322 64.7039 118.669L64.742 118.704L64.7792 118.739C70.7809 124.457 78.3025 129.563 89.3249 132.073C91.4859 132.565 92.8388 134.716 92.3466 136.877C91.8544 139.038 89.7035 140.391 87.5425 139.899C74.8322 137.004 66.0745 131.05 59.2795 124.585C54.6376 120.371 50.2754 113.925 47.8004 108.37C45.2941 102.744 43.4532 94.6076 43.4532 88.3734C43.4532 76.8558 54.0672 67.6337 66.3746 67.6337C70.9876 67.6337 76.5535 69.0049 81.1217 72.2328C85.8234 75.555 89.4335 80.8489 89.6578 88.2519C89.8037 93.0658 91.7413 96.2015 94.3978 98.2271C97.1776 100.347 101.032 101.451 105.1 101.451C112.583 101.451 119.632 95.7812 119.632 88.3734C119.632 81.935 118.072 74.2974 113.475 66.6173C104.658 51.888 86.992 41.2814 66.4132 41.4792C48.5746 41.6508 29.5596 50.0728 19.825 66.427C15.6726 73.403 13.5901 81.3751 13.8426 89.7064C14.1882 101.11 15.859 105.925 18.858 113.863C19.6413 115.937 18.5955 118.252 16.5221 119.036C14.4488 119.819 12.133 118.773 11.3497 116.7C8.16721 108.275 6.20179 102.545 5.82011 89.9495C5.52163 80.0996 7.98999 70.6178 12.9281 62.3217C24.4048 43.0409 46.3578 33.6455 66.336 33.4534ZM24.7266 87.6087C24.7507 66.911 44.7072 50.5435 66.3746 50.5435C87.9356 50.5435 108.75 65.3737 108.75 88.9188C108.75 91.1352 106.953 92.9319 104.737 92.9319C102.52 92.9319 100.724 91.1352 100.724 88.9188C100.724 71.011 84.812 58.5697 66.3746 58.5697C48.0566 58.5697 32.7528 72.363 32.7528 87.6462V87.6829L32.7521 87.7196C32.5985 96.1131 33.9365 104.143 38.3148 112.732C42.7703 121.471 48.1294 127.412 53.0269 131.723C54.6905 133.187 54.8519 135.723 53.3875 137.387C51.923 139.051 49.3872 139.212 47.7236 137.748C42.2163 132.899 36.1628 126.182 31.1642 116.377C26.0947 106.433 24.5578 97.0686 24.7266 87.6087ZM66.3746 84.3603C68.591 84.3603 70.3877 86.1571 70.3877 88.3734C70.3877 93.4169 71.7725 98.1891 74.3949 102.729C76.9318 107.121 80.2357 110.285 84.7385 113.013C91.2643 116.574 95.7869 117.808 102.634 117.633L102.662 117.632L102.689 117.632C105.367 117.6 108.517 117.379 111.016 116.944C113.199 116.563 115.278 118.024 115.659 120.207C116.04 122.391 114.578 124.47 112.395 124.85C109.353 125.381 105.762 125.621 102.811 125.657C94.3326 125.87 88.4182 124.175 80.8113 120.013L80.7373 119.973L80.6651 119.929C75.1434 116.599 70.7711 112.502 67.4448 106.744C64.1907 101.11 62.3615 94.9659 62.3615 88.3734C62.3615 86.1571 64.1582 84.3603 66.3746 84.3603Z" fill="#F04405"/>
<path d="M179.36 65.9775H206.789V75.2611H179.36V106.277H167.123V33.4849H211.853L210.587 42.7685H179.36V65.9775Z" fill="white"/>
<path d="M244.41 23.2518C246.66 23.2518 248.489 23.9903 249.895 25.4672C251.372 26.8738 252.111 28.6321 252.111 30.742C252.111 32.8519 251.372 34.6102 249.895 36.0168C248.489 37.4234 246.66 38.1267 244.41 38.1267C242.089 38.1267 240.225 37.4234 238.818 36.0168C237.412 34.6102 236.708 32.8519 236.708 30.742C236.708 28.5618 237.412 26.7684 238.818 25.3617C240.295 23.9551 242.159 23.2518 244.41 23.2518ZM252.533 97.6262H267.724V106.277H224.154V97.6262H240.717V59.2258H224.682V50.5752H252.533V97.6262Z" fill="white"/>
<path d="M281.186 50.5752H291.419L292.263 57.8544C294.584 55.0411 297.292 52.8961 300.386 51.4191C303.551 49.8719 306.857 49.0982 310.303 49.0982C315.437 49.0982 319.305 50.54 321.908 53.4235C324.51 56.3071 325.811 60.3862 325.811 65.661V106.277H313.995V71.5688C313.995 68.1226 313.784 65.4852 313.362 63.6566C313.011 61.7577 312.272 60.3862 311.147 59.5423C310.022 58.628 308.334 58.1708 306.083 58.1708C303.551 58.1708 301.125 58.9445 298.804 60.4917C296.553 62.039 294.619 63.9731 293.002 66.294V106.277H281.186V50.5752Z" fill="white"/>
<path d="M390.227 53.318C388.188 54.0214 385.867 54.5137 383.265 54.795C380.733 55.006 377.673 55.1115 374.087 55.1115C377.462 56.6587 379.994 58.5928 381.682 60.9137C383.37 63.2346 384.214 66.0478 384.214 69.3534C384.214 73.0105 383.3 76.2457 381.471 79.059C379.713 81.8722 377.181 84.0876 373.876 85.7052C370.57 87.3228 366.667 88.1316 362.166 88.1316C359.001 88.1316 356.469 87.8151 354.57 87.1821C353.796 87.7447 353.198 88.448 352.776 89.292C352.355 90.0656 352.144 90.9096 352.144 91.8239C352.144 94.6371 354.429 96.0437 359.001 96.0437H368.706C372.645 96.0437 376.161 96.7119 379.256 98.0481C382.35 99.3844 384.742 101.248 386.43 103.639C388.188 105.96 389.067 108.598 389.067 111.552C389.067 117.108 386.676 121.398 381.893 124.422C377.111 127.517 370.218 129.064 361.216 129.064C354.957 129.064 349.998 128.396 346.341 127.059C342.754 125.793 340.187 123.895 338.64 121.363C337.163 118.901 336.425 115.701 336.425 111.763H346.974C346.974 113.872 347.361 115.525 348.135 116.721C348.979 117.987 350.42 118.901 352.46 119.464C354.5 120.097 357.453 120.413 361.322 120.413C366.948 120.413 370.992 119.71 373.454 118.303C375.915 116.967 377.146 114.963 377.146 112.29C377.146 110.039 376.161 108.281 374.192 107.015C372.293 105.82 369.691 105.222 366.385 105.222H356.785C351.792 105.222 347.994 104.202 345.392 102.162C342.86 100.123 341.594 97.5558 341.594 94.4613C341.594 92.5624 342.121 90.7338 343.176 88.9755C344.231 87.2173 345.743 85.7052 347.713 84.4392C344.407 82.681 341.981 80.5711 340.434 78.1095C338.957 75.5776 338.218 72.4831 338.218 68.8259C338.218 64.9577 339.203 61.5467 341.172 58.5928C343.141 55.5686 345.884 53.2477 349.401 51.6301C352.917 49.9422 356.926 49.0982 361.427 49.0982C367.476 49.1686 372.258 48.7466 375.775 47.8323C379.361 46.918 383.159 45.4762 387.168 43.507L390.227 53.318ZM361.533 57.3269C357.805 57.3269 354.992 58.3818 353.093 60.4917C351.194 62.5313 350.245 65.3094 350.245 68.8259C350.245 72.4127 351.194 75.2611 353.093 77.371C355.062 79.4106 357.911 80.4304 361.638 80.4304C365.155 80.4304 367.827 79.4106 369.656 77.371C371.484 75.3314 372.399 72.4127 372.399 68.6149C372.399 61.0896 368.777 57.3269 361.533 57.3269Z" fill="white"/>
<path d="M409.07 82.2238C409.422 87.6393 410.969 91.7184 413.712 94.4613C416.525 97.1338 420.041 98.4701 424.261 98.4701C426.863 98.4701 429.325 98.0833 431.646 97.3097C434.037 96.4657 436.464 95.2349 438.925 93.6173L443.989 100.791C441.387 102.971 438.327 104.659 434.811 105.855C431.294 107.05 427.602 107.648 423.734 107.648C415.224 107.648 408.613 105.011 403.901 99.7361C399.188 94.391 396.832 87.2876 396.832 78.426C396.832 72.8699 397.852 67.8764 399.892 63.4456C401.931 58.9445 404.885 55.428 408.753 52.8961C412.622 50.3642 417.123 49.0982 422.257 49.0982C429.642 49.0982 435.479 51.595 439.769 56.5884C444.13 61.5115 446.31 68.2984 446.31 76.949C446.31 79.0589 446.204 80.8172 445.993 82.2238H409.07ZM422.362 57.8544C418.564 57.8544 415.47 59.2258 413.079 61.9687C410.687 64.7116 409.316 68.7907 408.964 74.2062H434.811C434.67 68.9314 433.545 64.8874 431.435 62.0742C429.325 59.261 426.301 57.8544 422.362 57.8544Z" fill="white"/>
<path d="M497.75 49.2037C500.634 49.2037 503.447 49.6609 506.19 50.5752L504.186 71.1468H495.746V59.7533C491.878 59.8236 488.502 61.3709 485.618 64.3951C482.805 67.4193 480.555 71.6743 478.867 77.16V97.8372H490.049V106.277H458.823V97.8372H467.051V59.0148H458.823V50.5752H476.018L478.128 63.4456C480.309 58.6632 482.946 55.1115 486.04 52.7906C489.205 50.3993 493.109 49.2037 497.75 49.2037Z" fill="white"/>
<path d="M544.549 49.0982C558.053 49.0982 564.804 58.839 564.804 78.3205C564.804 87.1118 562.941 94.2151 559.213 99.6306C555.486 104.976 550.176 107.648 543.283 107.648C537.446 107.648 532.734 105.609 529.147 101.529V127.692L517.331 129.064V50.5752H527.564L528.303 57.7489C530.413 54.9357 532.839 52.7906 535.582 51.3136C538.395 49.8367 541.384 49.0982 544.549 49.0982ZM541.279 58.1708C538.817 58.1708 536.567 58.9093 534.527 60.3862C532.488 61.8632 530.694 63.7973 529.147 66.1885V92.2459C531.89 96.3954 535.547 98.4701 540.118 98.4701C544.198 98.4701 547.257 96.8525 549.297 93.6173C551.336 90.3821 552.356 85.3184 552.356 78.426C552.356 71.3226 551.442 66.1885 549.613 63.0236C547.784 59.7884 545.006 58.1708 541.279 58.1708Z" fill="white"/>
<path d="M615.823 49.2037C618.707 49.2037 621.52 49.6609 624.263 50.5752L622.258 71.1468H613.819V59.7533C609.95 59.8236 606.574 61.3709 603.691 64.3951C600.878 67.4193 598.627 71.6743 596.939 77.16V97.8372H608.122V106.277H576.895V97.8372H585.124V59.0148H576.895V50.5752H594.091L596.201 63.4456C598.381 58.6632 601.018 55.1115 604.113 52.7906C607.278 50.3993 611.181 49.2037 615.823 49.2037Z" fill="white"/>
<path d="M657.663 23.2518C659.914 23.2518 661.743 23.9903 663.149 25.4672C664.626 26.8738 665.365 28.6321 665.365 30.742C665.365 32.8519 664.626 34.6102 663.149 36.0168C661.743 37.4234 659.914 38.1267 657.663 38.1267C655.343 38.1267 653.479 37.4234 652.072 36.0168C650.666 34.6102 649.962 32.8519 649.962 30.742C649.962 28.5618 650.666 26.7684 652.072 25.3617C653.549 23.9551 655.413 23.2518 657.663 23.2518ZM665.787 97.6262H680.978V106.277H637.408V97.6262H653.971V59.2258H637.936V50.5752H665.787V97.6262Z" fill="white"/>
<path d="M694.44 50.5752H704.673L705.517 57.8544C707.838 55.0411 710.546 52.8961 713.64 51.4191C716.805 49.8719 720.111 49.0982 723.557 49.0982C728.691 49.0982 732.559 50.54 735.161 53.4235C737.764 56.3071 739.065 60.3862 739.065 65.661V106.277H727.249V71.5688C727.249 68.1226 727.038 65.4852 726.616 63.6566C726.265 61.7577 725.526 60.3862 724.401 59.5423C723.276 58.628 721.588 58.1708 719.337 58.1708C716.805 58.1708 714.379 58.9445 712.058 60.4917C709.807 62.039 707.873 63.9731 706.256 66.294V106.277H694.44V50.5752Z" fill="white"/>
<path d="M800 103.323C797.89 104.659 795.429 105.714 792.615 106.488C789.802 107.261 786.848 107.648 783.754 107.648C777.424 107.648 772.536 106.031 769.09 102.795C765.644 99.4899 763.92 95.0239 763.92 89.3975V59.2258H751.578V50.5752H763.92V38.1267L775.736 36.7553V50.5752H794.62L793.248 59.2258H775.736V89.292C775.736 92.3162 776.51 94.5668 778.057 96.0437C779.604 97.4503 782.066 98.1536 785.442 98.1536C789.169 98.1536 792.615 97.2745 795.78 95.5163L800 103.323Z" fill="white"/>
</svg>
