<svg width="800" height="141" viewBox="0 0 800 141" fill="none" xmlns="http://www.w3.org/2000/svg">
<path fill-rule="evenodd" clip-rule="evenodd" d="M22.1605 10.9338C34.7792 4.54741 50.3173 0.157715 67.027 0.157715C82.883 0.157715 98.9643 4.34667 111.623 10.7533C113.859 11.8848 114.754 14.6144 113.622 16.85C112.491 19.0857 109.761 19.9808 107.526 18.8493C96.084 13.0587 81.4011 9.23158 67.027 9.23158C51.883 9.23158 37.7397 13.2189 26.2579 19.0298C24.0222 20.1613 21.2926 19.2662 20.1612 17.0305C19.0297 14.7948 19.9248 12.0652 22.1605 10.9338ZM30.0506 24.7674C41.0022 19.6552 55.0693 16.942 66.9749 16.942C78.8995 16.942 92.6162 19.6623 103.553 24.7674C115.73 30.4516 125.931 38.7081 132.928 48.4261C134.392 50.4595 133.931 53.2948 131.897 54.7589C129.864 56.223 127.029 55.7614 125.564 53.728C119.567 45.3984 110.638 38.0888 99.7144 32.9895C90.1075 28.505 77.7217 26.0159 66.9749 26.0159C56.2093 26.0159 43.4805 28.5121 33.8887 32.9895C23.4361 37.8688 14.0692 45.7193 8.22902 53.8947C6.77252 55.9336 3.93896 56.4057 1.90007 54.9492C-0.138815 53.4927 -0.610937 50.6592 0.845557 48.6203C7.63875 39.1108 18.2536 30.2742 30.0506 24.7674ZM66.397 33.3655C89.7656 33.1408 110.157 45.1746 120.506 62.463C125.938 71.5373 127.828 80.6596 127.828 88.4356C127.828 101.678 115.737 109.937 104.882 109.937C99.4452 109.937 93.6695 108.483 89.0917 104.993C84.3746 101.396 81.2573 95.8693 81.0362 88.573C80.9038 84.2036 78.9053 81.3102 76.1626 79.3722C73.269 77.3277 69.5248 76.3687 66.4406 76.3687C58.0504 76.3687 52.208 82.5416 52.208 88.4356C52.208 93.3499 53.7509 100.25 55.7858 104.817C57.8482 109.446 61.5479 114.836 65.1534 118.099L65.1965 118.138L65.2386 118.178C71.1412 123.801 78.5218 128.81 89.3453 131.275C91.7884 131.831 93.3179 134.263 92.7614 136.706C92.205 139.149 89.7733 140.679 87.3302 140.122C74.5985 137.222 65.8206 131.255 59.021 124.787C54.3494 120.544 49.9793 114.081 47.4973 108.51C44.9801 102.86 43.1342 94.7067 43.1342 88.4356C43.1342 76.6429 53.9751 67.2948 66.4406 67.2948C71.1169 67.2948 76.7575 68.6821 81.3988 71.9616C86.1909 75.3477 89.8774 80.7561 90.1059 88.2982C90.2458 92.9133 92.0916 95.8692 94.5936 97.777C97.2348 99.7909 100.934 100.863 104.882 100.863C112.087 100.863 118.754 95.4065 118.754 88.4356C118.754 82.1344 117.227 74.6529 112.72 67.1234C104.072 52.6755 86.7209 42.2444 66.4842 42.439C48.9242 42.6078 30.2513 50.901 20.7082 66.9333C16.6405 73.7671 14.5999 81.5766 14.8474 89.742C15.1879 100.979 16.8261 105.696 19.7905 113.543C20.676 115.887 19.4937 118.505 17.1497 119.39C14.8057 120.276 12.1877 119.093 11.3022 116.749C8.13035 108.353 6.15905 102.602 5.77767 90.0168C5.47821 80.1346 7.95505 70.6183 12.9111 62.2922C24.4236 42.9512 46.418 33.5576 66.397 33.3655ZM24.5451 87.6712C24.5723 66.7537 44.7023 50.3301 66.4406 50.3301C88.0587 50.3301 109.058 65.2162 109.058 88.977C109.058 91.4827 107.027 93.514 104.521 93.514C102.015 93.514 99.9842 91.4827 99.9842 88.977C99.9842 71.5893 84.5273 59.404 66.4406 59.404C48.4889 59.404 33.619 72.9172 33.619 87.7137V87.7552L33.6182 87.7967C33.4671 96.0542 34.7817 103.933 39.0797 112.364C43.4651 120.966 48.737 126.809 53.5565 131.052C55.4373 132.707 55.6198 135.574 53.9642 137.455C52.3086 139.336 49.4417 139.518 47.5609 137.862C42.052 133.013 35.9952 126.291 30.9958 116.485C25.9163 106.521 24.3768 97.1344 24.5451 87.6712ZM66.4406 83.8987C68.9463 83.8987 70.9775 85.9299 70.9775 88.4356C70.9775 93.3352 72.3215 97.9778 74.8812 102.409C77.3442 106.673 80.549 109.749 84.9459 112.414C91.3453 115.905 95.7381 117.098 102.42 116.927L102.451 116.926L102.482 116.926C105.121 116.895 108.217 116.677 110.659 116.251C113.128 115.82 115.478 117.472 115.908 119.941C116.339 122.409 114.687 124.759 112.218 125.19C109.162 125.723 105.568 125.963 102.621 125.999C94.0942 126.212 88.1282 124.499 80.5057 120.328L80.4221 120.283L80.3405 120.233C74.7916 116.887 70.3792 112.757 67.0239 106.948C63.7501 101.28 61.9037 95.0864 61.9037 88.4356C61.9037 85.9299 63.9349 83.8987 66.4406 83.8987Z" fill="#0D102B"/>
<path d="M179.36 66.1353H206.789V75.4189H179.36V106.435H167.122V33.6426H211.852L210.587 42.9262H179.36V66.1353Z" fill="#0D102B"/>
<path d="M244.409 23.4096C246.66 23.4096 248.489 24.148 249.895 25.625C251.372 27.0316 252.111 28.7898 252.111 30.8998C252.111 33.0097 251.372 34.7679 249.895 36.1745C248.489 37.5811 246.66 38.2844 244.409 38.2844C242.089 38.2844 240.225 37.5811 238.818 36.1745C237.412 34.7679 236.708 33.0097 236.708 30.8998C236.708 28.7195 237.412 26.9261 238.818 25.5195C240.295 24.1129 242.159 23.4096 244.409 23.4096ZM252.533 97.7839H267.724V106.435H224.154V97.7839H240.717V59.3835H224.682V50.7329H252.533V97.7839Z" fill="#0D102B"/>
<path d="M281.186 50.7329H291.419L292.263 58.0121C294.584 55.1989 297.292 53.0538 300.386 51.5769C303.551 50.0296 306.857 49.256 310.303 49.256C315.437 49.256 319.305 50.6977 321.907 53.5813C324.51 56.4648 325.811 60.544 325.811 65.8188V106.435H313.995V71.7265C313.995 68.2803 313.784 65.6429 313.362 63.8144C313.011 61.9154 312.272 60.544 311.147 59.7C310.022 58.7857 308.334 58.3286 306.083 58.3286C303.551 58.3286 301.125 59.1022 298.804 60.6495C296.553 62.1968 294.619 64.1308 293.002 66.4517V106.435H281.186V50.7329Z" fill="#0D102B"/>
<path d="M390.227 53.4758C388.188 54.1791 385.867 54.6714 383.265 54.9527C380.733 55.1637 377.673 55.2692 374.086 55.2692C377.462 56.8165 379.994 58.7506 381.682 61.0715C383.37 63.3924 384.214 66.2056 384.214 69.5111C384.214 73.1683 383.3 76.4035 381.471 79.2167C379.713 82.0299 377.181 84.2453 373.875 85.8629C370.57 87.4805 366.667 88.2893 362.165 88.2893C359.001 88.2893 356.469 87.9728 354.57 87.3398C353.796 87.9025 353.198 88.6058 352.776 89.4498C352.354 90.2234 352.143 91.0674 352.143 91.9817C352.143 94.7949 354.429 96.2015 359.001 96.2015H368.706C372.645 96.2015 376.161 96.8696 379.256 98.2059C382.35 99.5422 384.741 101.406 386.429 103.797C388.188 106.118 389.067 108.755 389.067 111.709C389.067 117.265 386.676 121.556 381.893 124.58C377.111 127.674 370.218 129.222 361.216 129.222C354.957 129.222 349.998 128.553 346.341 127.217C342.754 125.951 340.187 124.052 338.64 121.52C337.163 119.059 336.425 115.859 336.425 111.92H346.974C346.974 114.03 347.361 115.683 348.135 116.879C348.979 118.145 350.42 119.059 352.46 119.621C354.499 120.254 357.453 120.571 361.321 120.571C366.948 120.571 370.992 119.868 373.453 118.461C375.915 117.125 377.146 115.12 377.146 112.448C377.146 110.197 376.161 108.439 374.192 107.173C372.293 105.977 369.691 105.38 366.385 105.38H356.785C351.792 105.38 347.994 104.36 345.392 102.32C342.86 100.281 341.594 97.7136 341.594 94.619C341.594 92.7201 342.121 90.8915 343.176 89.1333C344.231 87.375 345.743 85.8629 347.713 84.597C344.407 82.8387 341.981 80.7288 340.433 78.2672C338.956 75.7353 338.218 72.6408 338.218 68.9836C338.218 65.1155 339.203 61.7044 341.172 58.7506C343.141 55.7264 345.884 53.4055 349.4 51.7879C352.917 50.0999 356.926 49.256 361.427 49.256C367.475 49.3263 372.258 48.9043 375.774 47.99C379.361 47.0757 383.159 45.634 387.168 43.6647L390.227 53.4758ZM361.532 57.4846C357.805 57.4846 354.992 58.5396 353.093 60.6495C351.194 62.6891 350.244 65.4671 350.244 68.9836C350.244 72.5705 351.194 75.4189 353.093 77.5288C355.062 79.5683 357.91 80.5881 361.638 80.5881C365.154 80.5881 367.827 79.5683 369.656 77.5288C371.484 75.4892 372.399 72.5705 372.399 68.7726C372.399 61.2473 368.776 57.4846 361.532 57.4846Z" fill="#0D102B"/>
<path d="M409.07 82.3816C409.421 87.797 410.969 91.8762 413.712 94.619C416.525 97.2916 420.041 98.6279 424.261 98.6279C426.863 98.6279 429.325 98.2411 431.646 97.4674C434.037 96.6235 436.463 95.3927 438.925 93.7751L443.989 100.949C441.387 103.129 438.327 104.817 434.811 106.013C431.294 107.208 427.602 107.806 423.734 107.806C415.224 107.806 408.613 105.169 403.9 99.8938C399.188 94.5487 396.832 87.4453 396.832 78.5837C396.832 73.0276 397.852 68.0342 399.892 63.6034C401.931 59.1022 404.885 55.5857 408.753 53.0538C412.621 50.5219 417.123 49.256 422.257 49.256C429.641 49.256 435.479 51.7527 439.769 56.7462C444.129 61.6693 446.31 68.4562 446.31 77.1068C446.31 79.2167 446.204 80.975 445.993 82.3816H409.07ZM422.362 58.0121C418.564 58.0121 415.47 59.3835 413.079 62.1264C410.687 64.8693 409.316 68.9485 408.964 74.3639H434.811C434.67 69.0891 433.545 65.0451 431.435 62.2319C429.325 59.4187 426.301 58.0121 422.362 58.0121Z" fill="#0D102B"/>
<path d="M497.75 49.3615C500.634 49.3615 503.447 49.8186 506.19 50.7329L504.185 71.3045H495.746V59.911C491.878 59.9813 488.502 61.5286 485.618 64.5528C482.805 67.577 480.554 71.832 478.867 77.3178V97.9949H490.049V106.435H458.822V97.9949H467.051V59.1726H458.822V50.7329H476.018L478.128 63.6034C480.308 58.8209 482.946 55.2692 486.04 52.9483C489.205 50.5571 493.108 49.3615 497.75 49.3615Z" fill="#0D102B"/>
<path d="M544.549 49.256C558.052 49.256 564.804 58.9967 564.804 78.4782C564.804 87.2695 562.94 94.3729 559.213 99.7883C555.485 105.133 550.175 107.806 543.283 107.806C537.446 107.806 532.734 105.766 529.147 101.687V127.85L517.331 129.222V50.7329H527.564L528.303 57.9066C530.413 55.0934 532.839 52.9483 535.582 51.4714C538.395 49.9944 541.384 49.256 544.549 49.256ZM541.279 58.3286C538.817 58.3286 536.567 59.0671 534.527 60.544C532.487 62.0209 530.694 63.955 529.147 66.3462V92.4036C531.89 96.5531 535.547 98.6279 540.118 98.6279C544.197 98.6279 547.257 97.0103 549.296 93.7751C551.336 90.5399 552.356 85.4761 552.356 78.5837C552.356 71.4804 551.441 66.3462 549.613 63.1814C547.784 59.9462 545.006 58.3286 541.279 58.3286Z" fill="#0D102B"/>
<path d="M615.823 49.3615C618.706 49.3615 621.52 49.8186 624.262 50.7329L622.258 71.3045H613.818V59.911C609.95 59.9813 606.574 61.5286 603.691 64.5528C600.878 67.577 598.627 71.832 596.939 77.3178V97.9949H608.122V106.435H576.895V97.9949H585.124V59.1726H576.895V50.7329H594.091L596.201 63.6034C598.381 58.8209 601.018 55.2692 604.113 52.9483C607.278 50.5571 611.181 49.3615 615.823 49.3615Z" fill="#0D102B"/>
<path d="M657.663 23.4096C659.914 23.4096 661.742 24.148 663.149 25.625C664.626 27.0316 665.364 28.7898 665.364 30.8998C665.364 33.0097 664.626 34.7679 663.149 36.1745C661.742 37.5811 659.914 38.2844 657.663 38.2844C655.342 38.2844 653.479 37.5811 652.072 36.1745C650.665 34.7679 649.962 33.0097 649.962 30.8998C649.962 28.7195 650.665 26.9261 652.072 25.5195C653.549 24.1129 655.413 23.4096 657.663 23.4096ZM665.786 97.7839H680.978V106.435H637.408V97.7839H653.971V59.3835H637.936V50.7329H665.786V97.7839Z" fill="#0D102B"/>
<path d="M694.44 50.7329H704.673L705.517 58.0121C707.838 55.1989 710.546 53.0538 713.64 51.5769C716.805 50.0296 720.111 49.256 723.557 49.256C728.691 49.256 732.559 50.6977 735.161 53.5813C737.764 56.4648 739.065 60.544 739.065 65.8188V106.435H727.249V71.7265C727.249 68.2803 727.038 65.6429 726.616 63.8144C726.264 61.9154 725.526 60.544 724.401 59.7C723.275 58.7857 721.588 58.3286 719.337 58.3286C716.805 58.3286 714.379 59.1022 712.058 60.6495C709.807 62.1968 707.873 64.1308 706.256 66.4517V106.435H694.44V50.7329Z" fill="#0D102B"/>
<path d="M800 103.481C797.89 104.817 795.428 105.872 792.615 106.646C789.802 107.419 786.848 107.806 783.754 107.806C777.424 107.806 772.536 106.188 769.09 102.953C765.643 99.6477 763.92 95.1817 763.92 89.5553V59.3835H751.577V50.7329H763.92V38.2844L775.736 36.913V50.7329H794.62L793.248 59.3835H775.736V89.4498C775.736 92.474 776.509 94.7245 778.057 96.2015C779.604 97.6081 782.066 98.3114 785.441 98.3114C789.169 98.3114 792.615 97.4323 795.78 95.674L800 103.481Z" fill="#0D102B"/>
</svg>
