<svg fill="none" xmlns="http://www.w3.org/2000/svg" viewBox="0 0 172 30" class="Header-module--logo--7bOtT">
  <path fill-rule="evenodd" clip-rule="evenodd"
        d="M4.746 2.308C7.448.94 10.776 0 14.355 0c3.396 0 6.84.897 9.55 2.27a.972.972 0 0 1-.877 1.733c-2.45-1.24-5.595-2.06-8.673-2.06-3.244 0-6.272.854-8.731 2.099a.972.972 0 0 1-.878-1.734Zm1.69 2.963c2.345-1.095 5.358-1.676 7.908-1.676 2.554 0 5.491.582 7.833 1.676 2.608 1.217 4.793 2.985 6.292 5.066a.972.972 0 0 1-1.578 1.136c-1.284-1.784-3.196-3.35-5.536-4.442-2.057-.96-4.71-1.493-7.011-1.493-2.306 0-5.032.535-7.086 1.493-2.239 1.045-4.245 2.727-5.496 4.478a.972.972 0 0 1-1.58-1.13c1.454-2.037 3.727-3.93 6.254-5.108Zm7.784 1.841c5.005-.048 9.372 2.529 11.588 6.232 1.163 1.943 1.568 3.897 1.568 5.562 0 2.836-2.59 4.605-4.914 4.605-1.164 0-2.401-.311-3.382-1.059-1.01-.77-1.677-1.954-1.725-3.517-.028-.935-.456-1.555-1.044-1.97-.62-.438-1.421-.643-2.082-.643-1.797 0-3.048 1.322-3.048 2.584 0 1.053.33 2.53.766 3.508.442.992 1.234 2.146 2.007 2.845l.009.008.009.009c1.264 1.204 2.845 2.277 5.163 2.805a.972.972 0 0 1-.432 1.895c-2.727-.621-4.606-1.9-6.063-3.285-1-.909-1.936-2.293-2.468-3.486-.539-1.21-.934-2.956-.934-4.299 0-2.526 2.322-4.528 4.991-4.528 1.002 0 2.21.297 3.204 1 1.026.725 1.816 1.883 1.864 3.499.03.988.426 1.621.962 2.03.565.431 1.358.66 2.203.66 1.543 0 2.97-1.168 2.97-2.661 0-1.35-.326-2.952-1.291-4.564-1.852-3.095-5.568-5.329-9.902-5.287-3.761.036-7.76 1.812-9.804 5.246a8.958 8.958 0 0 0-1.255 4.885c.073 2.407.424 3.417 1.058 5.097a.972.972 0 1 1-1.817.687c-.68-1.798-1.102-3.03-1.184-5.725a10.901 10.901 0 0 1 1.528-5.938C5.231 9.165 9.941 7.153 14.22 7.112Zm-8.963 11.63c.006-4.48 4.317-7.997 8.972-7.997 4.63 0 9.127 3.188 9.127 8.277a.972.972 0 1 1-1.943 0c0-3.724-3.31-6.333-7.184-6.333-3.844 0-7.029 2.893-7.029 6.062V18.77c-.033 1.769.249 3.456 1.17 5.262a13.23 13.23 0 0 0 3.1 4.002.972.972 0 1 1-1.284 1.459 15.172 15.172 0 0 1-3.548-4.579c-1.088-2.134-1.417-4.144-1.381-6.17Zm8.972-.808c.537 0 .972.435.972.972 0 1.05.288 2.044.836 2.993.527.913 1.214 1.572 2.155 2.142 1.371.748 2.312 1.003 3.743.967H21.948a11.752 11.752 0 0 0 1.751-.145.972.972 0 1 1 .334 1.915c-.654.114-1.424.165-2.055.173-1.826.046-3.104-.321-4.737-1.215l-.017-.01-.018-.01c-1.188-.717-2.133-1.601-2.852-2.845-.701-1.214-1.096-2.54-1.096-3.965 0-.537.435-.972.971-.972Z"
        fill="#F04405"></path>
  <path
    d="M38.413 14.13h5.874v1.988h-5.874v6.643h-2.621V7.17h9.58L45.1 9.16h-6.687v4.97ZM52.344 4.98c.482 0 .873.158 1.175.474.316.301.474.678.474 1.13 0 .452-.158.828-.474 1.13-.301.3-.693.451-1.175.451-.497 0-.896-.15-1.197-.451-.302-.302-.452-.678-.452-1.13 0-.467.15-.851.452-1.152.316-.302.715-.452 1.197-.452Zm1.74 15.928h3.253v1.853h-9.331v-1.853h3.547v-8.224H48.12v-1.853h5.965v10.077ZM60.22 10.831h2.192l.18 1.56a5.079 5.079 0 0 1 1.74-1.379 4.777 4.777 0 0 1 2.124-.497c1.1 0 1.928.309 2.485.926.558.618.836 1.492.836 2.621v8.699h-2.53v-7.433c0-.739-.045-1.303-.136-1.695-.075-.407-.233-.7-.474-.881-.241-.196-.603-.294-1.085-.294-.542 0-1.062.166-1.559.497a4.872 4.872 0 0 0-1.242 1.243v8.563h-2.53V10.83ZM83.573 11.419c-.437.15-.934.256-1.491.316-.542.045-1.198.068-1.966.068.723.331 1.266.745 1.627 1.243.362.497.542 1.1.542 1.807 0 .783-.196 1.476-.587 2.079-.377.602-.919 1.077-1.627 1.423-.708.346-1.544.52-2.508.52-.678 0-1.22-.068-1.627-.204-.165.12-.293.271-.384.452-.09.166-.135.347-.135.543 0 .602.49.903 1.468.903h2.079c.844 0 1.597.143 2.26.43.662.286 1.174.685 1.536 1.197.376.497.564 1.062.564 1.694 0 1.19-.512 2.11-1.536 2.757-1.024.663-2.5.994-4.428.994-1.34 0-2.403-.143-3.186-.43-.768-.27-1.318-.677-1.65-1.22-.316-.526-.474-1.212-.474-2.055h2.26c0 .451.083.805.248 1.061.181.272.49.468.927.588.436.136 1.069.203 1.897.203 1.205 0 2.072-.15 2.599-.452.527-.286.79-.715.79-1.287 0-.482-.21-.859-.632-1.13-.407-.256-.964-.384-1.672-.384H76.41c-1.07 0-1.883-.219-2.44-.655-.542-.437-.814-.987-.814-1.65 0-.406.113-.798.34-1.175.225-.376.55-.7.97-.971-.707-.377-1.227-.828-1.558-1.356-.316-.542-.475-1.205-.475-1.988 0-.828.211-1.559.633-2.191.422-.648 1.01-1.145 1.762-1.492.754-.361 1.612-.542 2.576-.542 1.295.015 2.32-.075 3.073-.271a12.678 12.678 0 0 0 2.44-.926l.655 2.1Zm-6.145.858c-.799 0-1.401.226-1.808.678-.407.437-.61 1.032-.61 1.785 0 .768.203 1.378.61 1.83.422.437 1.032.655 1.83.655.753 0 1.326-.218 1.717-.655.392-.437.588-1.062.588-1.875 0-1.612-.776-2.418-2.327-2.418ZM87.608 17.61c.076 1.16.407 2.033.995 2.62.602.573 1.355.859 2.259.859.557 0 1.084-.083 1.581-.249a7.24 7.24 0 0 0 1.56-.79l1.084 1.536a6.063 6.063 0 0 1-1.966 1.084 7.317 7.317 0 0 1-2.372.384c-1.823 0-3.239-.564-4.248-1.694-1.009-1.145-1.513-2.666-1.513-4.564 0-1.19.218-2.26.655-3.208.437-.964 1.07-1.717 1.898-2.26.828-.542 1.792-.813 2.892-.813 1.581 0 2.831.535 3.75 1.604.934 1.055 1.4 2.508 1.4 4.36 0 .453-.022.83-.067 1.13h-7.908Zm2.847-5.22c-.813 0-1.476.294-1.988.881-.512.588-.806 1.462-.881 2.621h5.535c-.03-1.13-.27-1.995-.723-2.598-.452-.602-1.1-.904-1.943-.904ZM106.601 10.538c.617 0 1.22.098 1.807.293l-.429 4.406h-1.808v-2.44c-.828.015-1.551.346-2.169.994-.602.648-1.084 1.56-1.446 2.734v4.428h2.395v1.808h-6.687v-1.808h1.762V12.64h-1.762V10.83h3.682l.452 2.757c.467-1.024 1.032-1.785 1.695-2.282.678-.512 1.514-.768 2.508-.768ZM116.623 10.515c2.892 0 4.338 2.086 4.338 6.258 0 1.883-.399 3.405-1.197 4.564-.798 1.145-1.936 1.718-3.412 1.718-1.25 0-2.259-.437-3.027-1.31v5.602l-2.531.294v-16.81h2.192l.158 1.537c.452-.603.972-1.062 1.559-1.378a4.072 4.072 0 0 1 1.92-.475Zm-.7 1.943a2.41 2.41 0 0 0-1.446.475c-.437.316-.821.73-1.152 1.242v5.58c.587.89 1.37 1.334 2.349 1.334.874 0 1.529-.347 1.966-1.04.437-.692.655-1.777.655-3.253 0-1.521-.196-2.62-.587-3.298-.392-.693-.987-1.04-1.785-1.04ZM131.888 10.538c.617 0 1.22.098 1.807.293l-.429 4.406h-1.808v-2.44c-.828.015-1.551.346-2.169.994-.602.648-1.084 1.56-1.445 2.734v4.428h2.394v1.808h-6.687v-1.808h1.762V12.64h-1.762V10.83h3.682l.452 2.757c.467-1.024 1.032-1.785 1.695-2.282.678-.512 1.514-.768 2.508-.768ZM140.849 4.98c.482 0 .873.158 1.174.474.317.301.475.678.475 1.13 0 .452-.158.828-.475 1.13-.301.3-.692.451-1.174.451-.498 0-.897-.15-1.198-.451a1.534 1.534 0 0 1-.452-1.13c0-.467.151-.851.452-1.152.316-.302.716-.452 1.198-.452Zm1.739 15.928h3.254v1.853h-9.331v-1.853h3.547v-8.224h-3.434v-1.853h5.964v10.077ZM148.725 10.831h2.191l.181 1.56a5.076 5.076 0 0 1 1.74-1.379 4.779 4.779 0 0 1 2.124-.497c1.099 0 1.928.309 2.485.926.557.618.836 1.492.836 2.621v8.699h-2.531v-7.433c0-.739-.045-1.303-.135-1.695-.076-.407-.234-.7-.475-.881-.241-.196-.602-.294-1.084-.294-.542 0-1.062.166-1.559.497a4.883 4.883 0 0 0-1.243 1.243v8.563h-2.53V10.83ZM171.332 22.128a5.823 5.823 0 0 1-1.582.678 7.12 7.12 0 0 1-1.897.248c-1.356 0-2.403-.346-3.141-1.039-.738-.708-1.107-1.664-1.107-2.87v-6.46h-2.643V10.83h2.643V8.165l2.531-.293v2.96h4.044l-.294 1.852h-3.75v6.44c0 .647.165 1.129.497 1.445.331.302.858.452 1.581.452.798 0 1.536-.188 2.214-.565l.904 1.672Z"
    fill="#0D102B"></path>
</svg>
